<svg id="Camada_1" data-name="Camada 1" xmlns="http://www.w3.org/2000/svg" xmlns:xlink="http://www.w3.org/1999/xlink" viewBox="0 0 194.47 145.43"><defs><style>.cls-1,.cls-2{fill-rule:evenodd;}.cls-1{fill:url(#Gradiente_sem_nome);}.cls-2{fill:#f37336;}</style><linearGradient id="Gradiente_sem_nome" x1="8841.65" y1="-16034.41" x2="8841.65" y2="-10904.02" gradientTransform="matrix(0.03, 0, 0, -0.03, -200.16, -303.54)" gradientUnits="userSpaceOnUse"><stop offset="0" stop-color="#283448"/><stop offset="1" stop-color="#0098db"/></linearGradient></defs><g id="Camada_1-2" data-name="Camada_1"><g id="_105553356712800" data-name=" 105553356712800"><path class="cls-1" d="M99.09,151l-97.24-26V31.61L99.09,5.55h0V151Zm-17.18-47.5L33.67,116.4l48.24,12.93Zm0-50.42L33.67,40.13,81.91,27.21ZM19,103.28v-50L81.91,70.11V86.43Z" transform="translate(-1.85 -5.55)"/><path class="cls-2" d="M99.09,5.55l97.23,26.06v93.32L99.09,151Zm17.18,47.51,48.24-12.93L116.27,27.21Zm0,50.42,48.24,12.92-48.24,12.93V103.48Zm62.87-50.22v50L116.27,86.43V70.11Z" transform="translate(-1.85 -5.55)"/></g></g></svg>